<svg xmlns="http://www.w3.org/2000/svg" width="128" height="128" viewBox="0 0 128 128">
  <defs>
    <linearGradient id="bgGrad" x1="0%" y1="0%" x2="100%" y2="100%">
      <stop offset="0%" style="stop-color:#4F46E5"/>
      <stop offset="100%" style="stop-color:#7C3AED"/>
    </linearGradient>
    <linearGradient id="docGrad" x1="0%" y1="0%" x2="0%" y2="100%">
      <stop offset="0%" style="stop-color:#FFFFFF"/>
      <stop offset="100%" style="stop-color:#F3F4F6"/>
    </linearGradient>
  </defs>
  
  <!-- Background circle -->
  <circle cx="64" cy="64" r="60" fill="url(#bgGrad)"/>
  
  <!-- Document/Page -->
  <rect x="28" y="24" width="72" height="80" rx="4" fill="url(#docGrad)"/>
  
  <!-- Document fold corner -->
  <path d="M88 24 L100 36 L88 36 Z" fill="#E5E7EB"/>
  <path d="M88 24 L88 36 L100 36" fill="none" stroke="#D1D5DB" stroke-width="0.5"/>
  
  <!-- Summary lines -->
  <rect x="36" y="38" width="56" height="4" rx="2" fill="#4F46E5"/>
  <rect x="36" y="48" width="48" height="3" rx="1.5" fill="#9CA3AF"/>
  <rect x="36" y="56" width="52" height="3" rx="1.5" fill="#9CA3AF"/>
  <rect x="36" y="64" width="44" height="3" rx="1.5" fill="#9CA3AF"/>
  <rect x="36" y="72" width="50" height="3" rx="1.5" fill="#9CA3AF"/>
  
  <!-- Checkmark/GK indicator -->
  <circle cx="92" cy="92" r="16" fill="#10B981"/>
  <path d="M86 92 L90 96 L98 88" stroke="white" stroke-width="3" fill="none" stroke-linecap="round" stroke-linejoin="round"/>
</svg>